<svg width="280" height="134" viewBox="0 0 280 134" fill="none" xmlns="http://www.w3.org/2000/svg">
<path d="M278.46 0.983726C279.012 0.982216 279.461 1.4287 279.463 1.98099C279.464 2.53327 279.018 2.98221 278.465 2.98372L278.46 0.983726ZM0.719186 133.927L2.64082 122.541L11.5406 129.898L0.719186 133.927ZM278.465 2.98372C277.451 2.98649 276.436 2.99358 275.42 3.00499L275.398 1.00512C276.419 0.99364 277.44 0.986516 278.46 0.983726L278.465 2.98372ZM269.33 3.12528C267.302 3.18261 265.273 3.25723 263.243 3.34922L263.153 1.35127C265.194 1.25876 267.234 1.18372 269.274 1.12608L269.33 3.12528ZM257.161 3.67679C255.137 3.80317 253.111 3.94688 251.086 4.108L250.927 2.1143C252.964 1.95227 255.001 1.80776 257.037 1.68068L257.161 3.67679ZM245.018 4.64279C242.999 4.8381 240.979 5.05079 238.96 5.28092L238.734 3.29379C240.764 3.06237 242.795 2.84849 244.825 2.65208L245.018 4.64279ZM232.915 6.02228C230.904 6.28635 228.893 6.56782 226.883 6.86674L226.589 4.8885C228.61 4.58789 230.632 4.30485 232.655 4.0393L232.915 6.02228ZM220.865 7.8141C218.865 8.1466 216.865 8.49649 214.866 8.86385L214.504 6.89679C216.514 6.52738 218.525 6.17552 220.537 5.84116L220.865 7.8141ZM208.885 10.0157C206.897 10.4163 204.91 10.8342 202.924 11.2695L202.496 9.31594C204.493 8.87815 206.491 8.4579 208.49 8.05513L208.885 10.0157ZM196.985 12.6248C195.012 13.0929 193.041 13.5782 191.071 14.081L190.576 12.1431C192.557 11.6375 194.54 11.1495 196.524 10.6788L196.985 12.6248ZM185.183 15.6373C183.227 16.1721 181.273 16.7242 179.321 17.2937L178.761 15.3737C180.724 14.8011 182.689 14.2459 184.655 13.7082L185.183 15.6373ZM173.488 19.0494C171.552 19.6503 169.617 20.2685 167.685 20.9039L167.06 19.0041C169.003 18.3651 170.948 17.7435 172.896 17.1392L173.488 19.0494ZM161.916 22.8557C160.002 23.5216 158.09 24.2046 156.181 24.9048L155.492 23.0271C157.412 22.323 159.334 21.6362 161.259 20.9667L161.916 22.8557ZM150.48 27.0504C148.589 27.7804 146.7 28.5275 144.815 29.2917L144.064 27.4382C145.959 26.6698 147.858 25.9186 149.76 25.1846L150.48 27.0504ZM139.189 31.6278C137.324 32.4205 135.462 33.2301 133.604 34.0568L132.791 32.2294C134.659 31.3982 136.531 30.5842 138.406 29.7872L139.189 31.6278ZM128.059 36.5786C127.139 37.0065 126.22 37.4386 125.301 37.875L124.443 36.0685C125.366 35.6298 126.291 35.1953 127.216 34.765L128.059 36.5786ZM125.301 37.875C124.382 38.3113 123.467 38.7511 122.554 39.1942L121.68 37.3949C122.598 36.9493 123.519 36.5072 124.443 36.0685L125.301 37.875ZM117.096 41.8988C115.281 42.817 113.478 43.7486 111.685 44.6935L110.752 42.9243C112.555 41.9742 114.368 41.0374 116.193 40.1142L117.096 41.8988ZM106.319 47.5793C104.536 48.5578 102.764 49.5495 101.003 50.5544L100.012 48.8174C101.782 47.807 103.564 46.8097 105.357 45.8259L106.319 47.5793ZM95.7387 53.6181C93.9898 54.6556 92.2524 55.7062 90.5268 56.7697L89.4775 55.0671C91.2127 53.9977 92.9597 52.9413 94.7182 51.898L95.7387 53.6181ZM85.3693 60.0086C83.6562 61.1047 81.9549 62.2137 80.2656 63.3353L79.1593 61.6692C80.858 60.5413 82.5687 59.4261 84.2914 58.3239L85.3693 60.0086ZM75.2196 66.7477C73.5452 67.9009 71.8828 69.0667 70.2327 70.2449L69.0705 68.6173C70.7298 67.4325 72.4014 66.2602 74.0852 65.1006L75.2196 66.7477ZM65.3064 73.8261C63.6722 75.0354 62.0505 76.2571 60.4411 77.4909L59.2243 75.9037C60.8426 74.663 62.4734 73.4345 64.1167 72.2184L65.3064 73.8261ZM55.6386 81.2384C54.0467 82.5025 52.4675 83.7787 50.9011 85.0668L49.6308 83.522C51.206 82.2267 52.7941 80.9434 54.3949 79.6722L55.6386 81.2384ZM46.2299 88.9751C44.6823 90.2926 43.1476 91.6219 41.6259 92.9627L40.3037 91.4621C41.8339 90.1138 43.3772 88.7771 44.9335 87.4522L46.2299 88.9751ZM37.09 97.0288C35.5883 98.3982 34.0998 99.7792 32.6245 101.171L31.2518 99.7168C32.7354 98.3168 34.2322 96.9281 35.7423 95.551L37.09 97.0288ZM28.2307 105.389C26.7768 106.809 25.3363 108.24 23.9093 109.681L22.4878 108.275C23.9228 106.825 25.3713 105.386 26.8334 103.958L28.2307 105.389ZM19.6613 114.047C18.2567 115.516 16.8658 116.995 15.4887 118.485L14.02 117.127C15.4049 115.629 16.8036 114.141 18.216 112.665L19.6613 114.047ZM11.3925 122.992C10.0389 124.508 8.69922 126.033 7.37352 127.569L5.85949 126.262C7.19262 124.718 8.53979 123.184 9.90092 121.66L11.3925 122.992ZM278.46 0.983726C279.012 0.982216 279.461 1.4287 279.463 1.98099C279.464 2.53327 279.018 2.98221 278.465 2.98372L278.46 0.983726ZM0.719186 133.927L2.64082 122.541L11.5406 129.898L0.719186 133.927ZM278.465 2.98372C277.451 2.98649 276.436 2.99358 275.42 3.00499L275.398 1.00512C276.419 0.99364 277.44 0.986516 278.46 0.983726L278.465 2.98372ZM269.33 3.12528C267.302 3.18261 265.273 3.25723 263.243 3.34922L263.153 1.35127C265.194 1.25876 267.234 1.18372 269.274 1.12608L269.33 3.12528ZM257.161 3.67679C255.137 3.80317 253.111 3.94688 251.086 4.108L250.927 2.1143C252.964 1.95227 255.001 1.80776 257.037 1.68068L257.161 3.67679ZM245.018 4.64279C242.999 4.8381 240.979 5.05079 238.96 5.28092L238.734 3.29379C240.764 3.06237 242.795 2.84849 244.825 2.65208L245.018 4.64279ZM232.915 6.02228C230.904 6.28635 228.893 6.56782 226.883 6.86674L226.589 4.8885C228.61 4.58789 230.632 4.30485 232.655 4.0393L232.915 6.02228ZM220.865 7.8141C218.865 8.1466 216.865 8.49649 214.866 8.86385L214.504 6.89679C216.514 6.52738 218.525 6.17552 220.537 5.84116L220.865 7.8141ZM208.885 10.0157C206.897 10.4163 204.91 10.8342 202.924 11.2695L202.496 9.31594C204.493 8.87815 206.491 8.4579 208.49 8.05513L208.885 10.0157ZM196.985 12.6248C195.012 13.0929 193.041 13.5782 191.071 14.081L190.576 12.1431C192.557 11.6375 194.54 11.1495 196.524 10.6788L196.985 12.6248ZM185.183 15.6373C183.227 16.1721 181.273 16.7242 179.321 17.2937L178.761 15.3737C180.724 14.8011 182.689 14.2459 184.655 13.7082L185.183 15.6373ZM173.488 19.0494C171.552 19.6503 169.617 20.2685 167.685 20.9039L167.06 19.0041C169.003 18.3651 170.948 17.7435 172.896 17.1392L173.488 19.0494ZM161.916 22.8557C160.002 23.5216 158.09 24.2046 156.181 24.9048L155.492 23.0271C157.412 22.323 159.334 21.6362 161.259 20.9667L161.916 22.8557ZM150.48 27.0504C148.589 27.7804 146.7 28.5275 144.815 29.2917L144.064 27.4382C145.959 26.6698 147.858 25.9186 149.76 25.1846L150.48 27.0504ZM139.189 31.6278C137.324 32.4205 135.462 33.2301 133.604 34.0568L132.791 32.2294C134.659 31.3982 136.531 30.5842 138.406 29.7872L139.189 31.6278ZM128.059 36.5786C127.139 37.0065 126.22 37.4386 125.301 37.875L124.443 36.0685C125.366 35.6298 126.291 35.1953 127.216 34.765L128.059 36.5786ZM125.301 37.875C124.382 38.3113 123.467 38.7511 122.554 39.1942L121.68 37.3949C122.598 36.9493 123.519 36.5072 124.443 36.0685L125.301 37.875ZM117.096 41.8988C115.281 42.817 113.478 43.7486 111.685 44.6935L110.752 42.9243C112.555 41.9742 114.368 41.0374 116.193 40.1142L117.096 41.8988ZM106.319 47.5793C104.536 48.5578 102.764 49.5495 101.003 50.5544L100.012 48.8174C101.782 47.807 103.564 46.8097 105.357 45.8259L106.319 47.5793ZM95.7387 53.6181C93.9898 54.6556 92.2524 55.7062 90.5268 56.7697L89.4775 55.0671C91.2127 53.9977 92.9597 52.9413 94.7182 51.898L95.7387 53.6181ZM85.3693 60.0086C83.6562 61.1047 81.9549 62.2137 80.2656 63.3353L79.1593 61.6692C80.858 60.5413 82.5687 59.4261 84.2914 58.3239L85.3693 60.0086ZM75.2196 66.7477C73.5452 67.9009 71.8828 69.0667 70.2327 70.2449L69.0705 68.6173C70.7298 67.4325 72.4014 66.2602 74.0852 65.1006L75.2196 66.7477ZM65.3064 73.8261C63.6722 75.0354 62.0505 76.2571 60.4411 77.4909L59.2243 75.9037C60.8426 74.663 62.4734 73.4345 64.1167 72.2184L65.3064 73.8261ZM55.6386 81.2384C54.0467 82.5025 52.4675 83.7787 50.9011 85.0668L49.6308 83.522C51.206 82.2267 52.7941 80.9434 54.3949 79.6722L55.6386 81.2384ZM46.2299 88.9751C44.6823 90.2926 43.1476 91.6219 41.6259 92.9627L40.3037 91.4621C41.8339 90.1138 43.3772 88.7771 44.9335 87.4522L46.2299 88.9751ZM37.09 97.0288C35.5883 98.3982 34.0998 99.7792 32.6245 101.171L31.2518 99.7168C32.7354 98.3168 34.2322 96.9281 35.7423 95.551L37.09 97.0288ZM28.2307 105.389C26.7768 106.809 25.3363 108.24 23.9093 109.681L22.4878 108.275C23.9228 106.825 25.3713 105.386 26.8334 103.958L28.2307 105.389ZM19.6613 114.047C18.2567 115.516 16.8658 116.995 15.4887 118.485L14.02 117.127C15.4049 115.629 16.8036 114.141 18.216 112.665L19.6613 114.047ZM11.3925 122.992C10.0389 124.508 8.69922 126.033 7.37352 127.569L5.85949 126.262C7.19262 124.718 8.53979 123.184 9.90092 121.66L11.3925 122.992Z" fill="#A6A6A6"/>
</svg>
