<svg width="300" height="81" viewBox="0 0 300 81" fill="none" xmlns="http://www.w3.org/2000/svg">
<path d="M0.798456 7.3561C0.25749 7.46734 -0.0908722 7.99606 0.0203665 8.53703C0.131606 9.07799 0.660323 9.42635 1.20129 9.31511L0.798456 7.3561ZM299.826 80.8161L295.621 70.062L288.41 79.0807L299.826 80.8161ZM1.20129 9.31511C2.19518 9.11074 3.19025 8.91052 4.18647 8.71449L3.80032 6.75212C2.79853 6.94925 1.7979 7.15059 0.798456 7.3561L1.20129 9.31511ZM10.1731 7.58926C12.1702 7.23146 14.1717 6.8904 16.1775 6.5662L15.8584 4.59182C13.8414 4.91784 11.8287 5.2608 9.82036 5.62061L10.1731 7.58926ZM22.1982 5.6456C24.2063 5.35605 26.2183 5.08338 28.2342 4.8277L27.9825 2.84359C25.9554 3.10071 23.9321 3.3749 21.9128 3.66608L22.1982 5.6456ZM34.2836 4.11279C36.3001 3.89191 38.3201 3.68802 40.3436 3.50124L40.1598 1.50971C38.1249 1.69753 36.0936 1.90256 34.0658 2.12468L34.2836 4.11279ZM46.413 2.99317C48.4358 2.84122 50.4617 2.70636 52.4907 2.58871L52.3749 0.592067C50.3346 0.710371 48.2973 0.845984 46.2632 0.998793L46.413 2.99317ZM58.5748 2.288C60.6013 2.20517 62.6305 2.13952 64.6624 2.09117L64.6148 0.0917326C62.5716 0.140356 60.531 0.206373 58.4931 0.289669L58.5748 2.288ZM70.7523 1.9982C72.7803 1.98453 74.8107 1.98812 76.8433 2.00907L76.8639 0.0091797C74.8199 -0.0118903 72.7781 -0.0155003 70.7388 -0.00175736L70.7523 1.9982ZM82.9339 2.12376C84.961 2.17921 86.9901 2.25196 89.0211 2.34213L89.1098 0.344101C87.0675 0.253427 85.027 0.180265 82.9886 0.124509L82.9339 2.12376ZM95.103 2.66398C97.1267 2.78834 99.1522 2.93003 101.179 3.08917L101.336 1.09531C99.2974 0.935281 97.2607 0.792798 95.2256 0.667749L95.103 2.66398ZM107.248 3.61747C109.266 3.81045 111.286 4.0208 113.307 4.24861L113.531 2.26119C111.499 2.03212 109.468 1.82061 107.438 1.62655L107.248 3.61747ZM119.353 4.98191C121.363 5.24296 123.374 5.52137 125.386 5.81723L125.677 3.83851C123.654 3.54101 121.632 3.26107 119.61 2.99857L119.353 4.98191ZM131.405 6.75414C133.405 7.08279 135.406 7.42877 137.408 7.79218L137.765 5.82436C135.753 5.45894 133.741 5.11106 131.729 4.7806L131.405 6.75414ZM143.393 8.93073C145.38 9.32608 147.368 9.73871 149.356 10.1687L149.779 8.21393C147.78 7.78157 145.781 7.36668 143.783 6.96916L143.393 8.93073ZM155.298 11.506C156.286 11.737 157.275 11.9724 158.263 12.2121L158.734 10.2684C157.741 10.0274 156.747 9.79077 155.753 9.55846L155.298 11.506ZM158.263 12.2121C159.251 12.4518 160.237 12.6953 161.222 12.9428L161.709 11.0031C160.72 10.7543 159.728 10.5094 158.734 10.2684L158.263 12.2121ZM167.116 14.4766C169.08 15.0051 171.036 15.549 172.984 16.1081L173.536 14.1858C171.577 13.6236 169.611 13.0767 167.636 12.5453L167.116 14.4766ZM178.825 17.8381C180.771 18.432 182.708 19.0412 184.637 19.6656L185.253 17.7628C183.313 17.135 181.366 16.5224 179.409 15.9252L178.825 17.8381ZM190.416 21.5903C192.34 22.249 194.255 22.923 196.161 23.6119L196.841 21.7309C194.924 21.0382 192.998 20.3605 191.064 19.6981L190.416 21.5903ZM201.871 25.73C203.772 26.4534 205.664 27.1918 207.547 27.9451L208.29 26.0882C206.396 25.3307 204.494 24.5882 202.583 23.8608L201.871 25.73ZM213.183 30.2558C215.057 31.0429 216.923 31.8449 218.779 32.6616L219.584 30.831C217.718 30.0098 215.842 29.2033 213.957 28.4117L213.183 30.2558ZM224.332 35.1619C226.179 36.0122 228.016 36.8772 229.843 37.7566L230.71 35.9545C228.873 35.0702 227.025 34.2003 225.169 33.3452L224.332 35.1619ZM235.309 40.4451C237.125 41.3577 238.932 42.2847 240.728 43.226L241.657 41.4545C239.85 40.5079 238.034 39.5757 236.207 38.658L235.309 40.4451ZM246.099 46.0987C247.883 47.0726 249.656 48.0606 251.42 49.0627L252.408 47.3238C250.635 46.3162 248.851 45.3226 247.057 44.3432L246.099 46.0987ZM256.69 52.1174C258.44 53.1516 260.179 54.1996 261.907 55.2614L262.954 53.5573C261.216 52.4896 259.467 51.4356 257.708 50.3957L256.69 52.1174ZM267.069 58.4937C268.782 59.5868 270.484 60.6935 272.176 61.8137L273.28 60.1463C271.579 59.0198 269.868 57.9069 268.145 56.8077L267.069 58.4937ZM277.225 65.2207C278.9 66.3715 280.564 67.5357 282.216 68.713L283.376 67.0843C281.715 65.9003 280.042 64.7296 278.358 63.5724L277.225 65.2207ZM287.146 72.2897C288.78 73.4968 290.403 74.717 292.014 75.95L293.23 74.3617C291.609 73.1218 289.977 71.8948 288.334 70.681L287.146 72.2897ZM0.798456 7.3561C0.25749 7.46734 -0.0908722 7.99606 0.0203665 8.53703C0.131606 9.07799 0.660323 9.42635 1.20129 9.31511L0.798456 7.3561ZM299.826 80.8161L295.621 70.062L288.41 79.0807L299.826 80.8161ZM1.20129 9.31511C2.19518 9.11074 3.19025 8.91052 4.18647 8.71449L3.80032 6.75212C2.79853 6.94925 1.7979 7.15059 0.798456 7.3561L1.20129 9.31511ZM10.1731 7.58926C12.1702 7.23146 14.1717 6.8904 16.1775 6.5662L15.8584 4.59182C13.8414 4.91784 11.8287 5.2608 9.82036 5.62061L10.1731 7.58926ZM22.1982 5.6456C24.2063 5.35605 26.2183 5.08338 28.2342 4.8277L27.9825 2.84359C25.9554 3.10071 23.9321 3.3749 21.9128 3.66608L22.1982 5.6456ZM34.2836 4.11279C36.3001 3.89191 38.3201 3.68802 40.3436 3.50124L40.1598 1.50971C38.1249 1.69753 36.0936 1.90256 34.0658 2.12468L34.2836 4.11279ZM46.413 2.99317C48.4358 2.84122 50.4617 2.70636 52.4907 2.58871L52.3749 0.592067C50.3346 0.710371 48.2973 0.845984 46.2632 0.998793L46.413 2.99317ZM58.5748 2.288C60.6013 2.20517 62.6305 2.13952 64.6624 2.09117L64.6148 0.0917326C62.5716 0.140356 60.531 0.206373 58.4931 0.289669L58.5748 2.288ZM70.7523 1.9982C72.7803 1.98453 74.8107 1.98812 76.8433 2.00907L76.8639 0.0091797C74.8199 -0.0118903 72.7781 -0.0155003 70.7388 -0.00175736L70.7523 1.9982ZM82.9339 2.12376C84.961 2.17921 86.9901 2.25196 89.0211 2.34213L89.1098 0.344101C87.0675 0.253427 85.027 0.180265 82.9886 0.124509L82.9339 2.12376ZM95.103 2.66398C97.1267 2.78834 99.1522 2.93003 101.179 3.08917L101.336 1.09531C99.2974 0.935281 97.2607 0.792798 95.2256 0.667749L95.103 2.66398ZM107.248 3.61747C109.266 3.81045 111.286 4.0208 113.307 4.24861L113.531 2.26119C111.499 2.03212 109.468 1.82061 107.438 1.62655L107.248 3.61747ZM119.353 4.98191C121.363 5.24296 123.374 5.52137 125.386 5.81723L125.677 3.83851C123.654 3.54101 121.632 3.26107 119.61 2.99857L119.353 4.98191ZM131.405 6.75414C133.405 7.08279 135.406 7.42877 137.408 7.79218L137.765 5.82436C135.753 5.45894 133.741 5.11106 131.729 4.7806L131.405 6.75414ZM143.393 8.93073C145.38 9.32608 147.368 9.73871 149.356 10.1687L149.779 8.21393C147.78 7.78157 145.781 7.36668 143.783 6.96916L143.393 8.93073ZM155.298 11.506C156.286 11.737 157.275 11.9724 158.263 12.2121L158.734 10.2684C157.741 10.0274 156.747 9.79077 155.753 9.55846L155.298 11.506ZM158.263 12.2121C159.251 12.4518 160.237 12.6953 161.222 12.9428L161.709 11.0031C160.72 10.7543 159.728 10.5094 158.734 10.2684L158.263 12.2121ZM167.116 14.4766C169.08 15.0051 171.036 15.549 172.984 16.1081L173.536 14.1858C171.577 13.6236 169.611 13.0767 167.636 12.5453L167.116 14.4766ZM178.825 17.8381C180.771 18.432 182.708 19.0412 184.637 19.6656L185.253 17.7628C183.313 17.135 181.366 16.5224 179.409 15.9252L178.825 17.8381ZM190.416 21.5903C192.34 22.249 194.255 22.923 196.161 23.6119L196.841 21.7309C194.924 21.0382 192.998 20.3605 191.064 19.6981L190.416 21.5903ZM201.871 25.73C203.772 26.4534 205.664 27.1918 207.547 27.9451L208.29 26.0882C206.396 25.3307 204.494 24.5882 202.583 23.8608L201.871 25.73ZM213.183 30.2558C215.057 31.0429 216.923 31.8449 218.779 32.6616L219.584 30.831C217.718 30.0098 215.842 29.2033 213.957 28.4117L213.183 30.2558ZM224.332 35.1619C226.179 36.0122 228.016 36.8772 229.843 37.7566L230.71 35.9545C228.873 35.0702 227.025 34.2003 225.169 33.3452L224.332 35.1619ZM235.309 40.4451C237.125 41.3577 238.932 42.2847 240.728 43.226L241.657 41.4545C239.85 40.5079 238.034 39.5757 236.207 38.658L235.309 40.4451ZM246.099 46.0987C247.883 47.0726 249.656 48.0606 251.42 49.0627L252.408 47.3238C250.635 46.3162 248.851 45.3226 247.057 44.3432L246.099 46.0987ZM256.69 52.1174C258.44 53.1516 260.179 54.1996 261.907 55.2614L262.954 53.5573C261.216 52.4896 259.467 51.4356 257.708 50.3957L256.69 52.1174ZM267.069 58.4937C268.782 59.5868 270.484 60.6935 272.176 61.8137L273.28 60.1463C271.579 59.0198 269.868 57.9069 268.145 56.8077L267.069 58.4937ZM277.225 65.2207C278.9 66.3715 280.564 67.5357 282.216 68.713L283.376 67.0843C281.715 65.9003 280.042 64.7296 278.358 63.5724L277.225 65.2207ZM287.146 72.2897C288.78 73.4968 290.403 74.717 292.014 75.95L293.23 74.3617C291.609 73.1218 289.977 71.8948 288.334 70.681L287.146 72.2897Z" fill="#A6A6A6"/>
</svg>
