<svg width="33" height="32" viewBox="0 0 33 32" fill="none" xmlns="http://www.w3.org/2000/svg">
<path d="M8.67427 2.97671C10.0514 3.69661 10.7512 5.11942 11.436 6.43765C11.4749 6.51243 11.4749 6.51243 11.5147 6.58871C11.8735 7.28111 11.8735 7.28111 11.8735 7.43765C11.9285 7.43754 11.9285 7.43754 11.9846 7.43744C14.1583 7.43324 16.3321 7.43002 18.5059 7.42808C18.767 7.42784 19.0281 7.4276 19.2893 7.42735C19.3412 7.4273 19.3932 7.42725 19.4468 7.4272C20.288 7.42639 21.1293 7.42491 21.9705 7.42318C22.834 7.42143 23.6974 7.42039 24.5609 7.42001C25.0935 7.41975 25.6261 7.41894 26.1588 7.41742C26.5242 7.41642 26.8897 7.41613 27.2551 7.41637C27.4658 7.41649 27.6765 7.41621 27.8872 7.4153C28.1161 7.41437 28.345 7.41459 28.5738 7.4151C28.6399 7.41456 28.7059 7.41401 28.7739 7.41345C29.4225 7.41735 30.0037 7.56398 30.4985 8.00015C30.894 8.46507 31.0177 8.93781 31.0148 9.53776C31.015 9.59031 31.0153 9.64287 31.0155 9.69701C31.0161 9.87227 31.0159 10.0475 31.0157 10.2228C31.0159 10.3488 31.0162 10.4748 31.0166 10.6008C31.0175 10.9425 31.0175 11.2841 31.0173 11.6258C31.0173 11.9113 31.0176 12.1968 31.0179 12.4822C31.0186 13.1558 31.0186 13.8294 31.0182 14.5031C31.0178 15.1974 31.0186 15.8918 31.0199 16.5862C31.021 17.1829 31.0214 17.7796 31.0212 18.3762C31.0211 18.7324 31.0213 19.0885 31.0221 19.4447C31.0229 19.7796 31.0228 20.1146 31.022 20.4496C31.0218 20.5723 31.022 20.6951 31.0225 20.8178C31.0232 20.9858 31.0227 21.1537 31.0219 21.3217C31.0223 21.3698 31.0228 21.418 31.0233 21.4676C31.0173 22.075 30.8154 22.4905 30.3994 22.9269C30.0536 23.238 29.6669 23.3819 29.2048 23.3843C29.146 23.3848 29.0872 23.3852 29.0266 23.3857C28.9626 23.3859 28.8985 23.386 28.8325 23.3862C28.7647 23.3866 28.6969 23.387 28.627 23.3875C28.4026 23.3887 28.1782 23.3894 27.9538 23.39C27.8389 23.3904 27.8389 23.3904 27.7217 23.3908C27.3582 23.392 26.9948 23.3929 26.6313 23.3934C26.2539 23.394 25.8765 23.3952 25.4991 23.3974C25.0939 23.3998 24.6888 23.401 24.2837 23.4013C24.1292 23.4016 23.9747 23.4023 23.8203 23.4035C23.6043 23.405 23.3885 23.405 23.1726 23.4045C23.1086 23.4053 23.0447 23.4061 22.9788 23.4069C22.7022 23.4049 22.5438 23.403 22.3041 23.2557C22.1266 23.0595 22.0723 22.8879 22.061 22.6252C22.1272 22.3875 22.1829 22.2431 22.3724 22.083C22.6479 21.962 22.9018 21.9742 23.1997 21.9761C23.2959 21.9756 23.2959 21.9756 23.3941 21.9751C23.5332 21.9745 23.6723 21.9743 23.8114 21.9745C24.0315 21.9748 24.2516 21.9739 24.4718 21.9727C25.0184 21.97 25.565 21.9693 26.1116 21.9686C26.5737 21.9678 27.0357 21.9664 27.4978 21.9639C27.7147 21.9631 27.9316 21.9633 28.1485 21.9636C28.2814 21.963 28.4144 21.9624 28.5473 21.9617C28.6076 21.9621 28.668 21.9625 28.7301 21.9629C28.7859 21.9624 28.8416 21.9618 28.899 21.9613C28.9712 21.9612 28.9712 21.9612 29.0449 21.9612C29.2407 21.9285 29.3473 21.8805 29.4985 21.7502C29.53 21.5826 29.5395 21.454 29.5361 21.2863C29.5363 21.2386 29.5366 21.191 29.5369 21.1419C29.5374 20.9818 29.5357 20.8218 29.534 20.6617C29.5339 20.5472 29.5339 20.4326 29.5341 20.3181C29.5342 20.0066 29.5323 19.6952 29.5302 19.3837C29.5282 19.0584 29.528 18.7331 29.5277 18.4078C29.5267 17.7915 29.5241 17.1753 29.521 16.5591C29.5175 15.8576 29.5158 15.1561 29.5142 14.4547C29.5109 13.0115 29.5054 11.5683 29.4985 10.1252C29.4469 10.1683 29.3953 10.2114 29.3422 10.2558C29.2739 10.3128 29.2056 10.3698 29.1372 10.4268C29.1033 10.4552 29.0694 10.4835 29.0344 10.5127C28.8099 10.7001 28.5831 10.8822 28.35 11.0587C28.2817 11.1108 28.2135 11.1629 28.1452 11.215C28.1109 11.2412 28.0766 11.2674 28.0412 11.2943C27.8605 11.4331 27.6814 11.574 27.5024 11.715C27.4661 11.7436 27.4297 11.7722 27.3923 11.8017C27.3187 11.8597 27.245 11.9177 27.1714 11.9757C26.9889 12.1194 26.8062 12.2629 26.6235 12.4064C26.5506 12.4637 26.4777 12.521 26.4047 12.5783C25.0922 13.6095 23.7797 14.6408 22.4672 15.672C22.4131 15.7146 22.4131 15.7146 22.3578 15.758C22.2851 15.8151 22.2124 15.8722 22.1397 15.9293C21.9538 16.0751 21.7684 16.2214 21.5834 16.3683C19.9615 17.6555 19.9615 17.6555 18.9985 17.6252C18.133 17.5172 17.527 16.9837 16.8747 16.4525C16.6194 16.2453 16.3583 16.0463 16.0961 15.8478C15.6975 15.5452 15.3071 15.234 14.9199 14.9169C14.6009 14.6561 14.2765 14.4037 13.9489 14.1537C13.6245 13.9059 13.3045 13.6523 12.9839 13.3996C12.8377 13.2845 12.6914 13.1695 12.5451 13.0546C12.4727 12.9977 12.4003 12.9408 12.328 12.8838C12.1388 12.7348 11.9488 12.5867 11.7578 12.4401C11.7183 12.4096 11.6788 12.3791 11.6381 12.3477C11.563 12.2897 11.4877 12.232 11.4121 12.1746C11.2002 12.0104 11.0321 11.8411 10.8735 11.6252C10.8385 11.6457 10.8035 11.6662 10.7675 11.6873C10.6089 11.78 10.4502 11.8725 10.2915 11.965C10.2364 11.9973 10.1813 12.0295 10.1246 12.0628C10.0451 12.109 10.0451 12.109 9.96406 12.1562C9.91529 12.1846 9.86653 12.2131 9.81628 12.2424C9.68599 12.3127 9.68599 12.3127 9.49849 12.3752C9.42634 12.4891 9.42634 12.4891 9.37349 12.6252C9.35592 12.6658 9.33836 12.7065 9.32026 12.7484C9.09626 13.3537 9.14346 13.9044 9.37349 14.5002C9.50213 14.7575 9.64758 15.0034 9.79536 15.2502C9.85861 15.3577 9.92186 15.4652 9.98504 15.5728C10.0503 15.6838 10.1159 15.7946 10.1814 15.9054C10.3852 16.2503 10.5841 16.5981 10.7836 16.9455C11.0941 17.4837 11.4051 18.0215 11.7172 18.5587C11.7517 18.6183 11.7861 18.6778 11.8216 18.7391C12.0299 19.0967 12.247 19.4468 12.4735 19.7933C12.561 19.9377 12.561 19.9377 12.6235 20.1252C12.7388 20.1931 12.7388 20.1931 12.8735 20.2502C12.9561 20.3014 13.0381 20.3535 13.1196 20.4064C13.4603 20.6201 13.8289 20.8125 14.2444 20.7246C14.7289 20.5685 15.1456 20.3079 15.5795 20.0463C16.2859 19.6325 16.9692 19.4568 17.7836 19.6056C19.4362 20.0385 20.3922 21.7861 21.2079 23.1403C21.7663 24.0963 22.2355 25.186 22.1235 26.3127C22.0011 26.7776 21.8002 27.1505 21.3842 27.4086C21.2925 27.4619 21.2003 27.5145 21.1079 27.5666C21.0625 27.5929 21.0171 27.6192 20.9704 27.6463C20.1954 28.0918 19.4089 28.3826 18.5375 28.5783C18.4923 28.5885 18.447 28.5987 18.4004 28.6092C16.0748 29.1077 13.6822 28.5042 11.7062 27.2431C10.9932 26.7746 10.3633 26.2141 9.74849 25.6252C9.7016 25.5808 9.65471 25.5365 9.6064 25.4909C8.33811 24.2627 7.48224 22.6807 6.6125 21.1657C6.38877 20.7761 6.16276 20.3879 5.93599 20.0002C5.5089 19.2691 5.08462 18.5366 4.66307 17.8023C4.5749 17.6493 4.486 17.4968 4.39668 17.3444C2.85193 14.6903 2.06152 11.4592 2.82685 8.43057C3.01283 7.74267 3.27861 7.12206 3.62349 6.50015C3.65958 6.43272 3.69567 6.36528 3.73286 6.29581C3.98423 5.84253 4.2827 5.45212 4.62349 5.06265C4.67561 5.00142 4.72774 4.94019 4.78144 4.8771C5.63074 3.89801 7.28712 2.39329 8.67427 2.97671ZM6.29219 5.39371C6.23652 5.44946 6.18084 5.50521 6.12349 5.56265C6.06975 5.61196 6.01601 5.66126 5.96064 5.71207C4.80423 6.79497 4.06787 8.45049 3.98742 10.0298C3.969 11.1282 3.97427 12.1782 4.24849 13.2502C4.26122 13.3015 4.27394 13.3528 4.28706 13.4057C4.73065 15.1493 5.63102 16.6838 6.54475 18.2153C6.8502 18.7276 7.14885 19.2434 7.4438 19.7619C8.73979 22.0812 8.73979 22.0812 10.3681 24.1706C10.4892 24.3026 10.6054 24.4376 10.7211 24.5744C10.9399 24.8248 11.1801 25.0385 11.436 25.2502C11.4822 25.2893 11.5283 25.3285 11.5759 25.3688C13.1753 26.6934 15.2176 27.5532 17.3206 27.363C18.4239 27.2465 19.8684 26.9427 20.686 26.1252C20.8014 24.7175 19.5943 23.0834 18.7563 22.0392C18.6715 21.9418 18.5857 21.8454 18.4985 21.7502C18.4578 21.7037 18.4171 21.6573 18.3752 21.6095C18.0954 21.3069 17.7796 21.0419 17.3735 20.9377C16.8241 20.9263 16.4351 21.1859 15.975 21.4611C15.1029 21.9807 14.339 22.2757 13.3149 22.0587C12.127 21.7249 11.462 20.9644 10.8735 19.9377C10.8369 19.8741 10.8003 19.8106 10.7626 19.7452C10.5501 19.3759 10.339 19.0059 10.1286 18.6354C9.89936 18.2318 9.66649 17.8304 9.43208 17.4298C9.37962 17.3398 9.37962 17.3398 9.32609 17.248C9.1548 16.9543 8.98284 16.6609 8.8091 16.3686C8.7445 16.2597 8.68022 16.1506 8.61605 16.0414C8.53519 15.904 8.4538 15.7668 8.37176 15.63C7.81341 14.6763 7.61227 13.7019 7.86494 12.6171C8.08679 11.7974 8.5474 11.3037 9.2668 10.8905C9.44672 10.7902 9.62713 10.6909 9.8081 10.5925C10.4827 10.2446 10.4827 10.2446 10.8735 9.62515C10.9841 8.67255 10.5628 7.81513 10.1262 6.99801C10.0619 6.87685 9.99947 6.75485 9.93745 6.63248C9.49728 5.77232 8.93681 4.72011 8.06099 4.25015C7.46822 4.25015 6.69737 4.99335 6.29219 5.39371ZM12.2485 8.87515C12.2485 9.0814 12.2485 9.28765 12.2485 9.50015C12.1833 9.90127 12.0705 10.2686 11.8735 10.6252C11.8735 10.6664 11.8735 10.7077 11.8735 10.7502C12.0171 10.8657 12.1616 10.9745 12.311 11.0822C12.6768 11.3507 13.0346 11.6261 13.3852 11.9142C13.7471 12.2111 14.1135 12.5001 14.4855 12.7841C14.81 13.0319 15.1299 13.2855 15.4506 13.5382C15.6331 13.6819 15.8158 13.8254 15.9985 13.9689C16.0714 14.0262 16.1443 14.0835 16.2172 14.1408C16.2533 14.1691 16.2894 14.1975 16.3266 14.2267C16.6547 14.4845 16.6547 14.4845 16.7642 14.5705C16.8369 14.6276 16.9096 14.6847 16.9823 14.7418C17.1681 14.8876 17.3536 15.0339 17.5385 15.1808C17.7205 15.3252 17.9032 15.4686 18.0868 15.6108C18.1789 15.6821 18.2706 15.754 18.3623 15.8258C18.6823 16.0656 18.9047 16.2073 19.311 16.1877C19.795 16.0208 20.177 15.6616 20.5706 15.3431C20.7535 15.1958 20.9385 15.0512 21.1235 14.9064C21.1964 14.8491 21.2693 14.7918 21.3422 14.7345C27.0297 10.2658 27.0297 10.2658 27.1393 10.1797C27.2116 10.1228 27.284 10.066 27.3563 10.0091C27.5469 9.85922 27.7377 9.70972 27.9289 9.5607C27.9687 9.52964 28.0084 9.49858 28.0494 9.46658C28.1255 9.40715 28.2016 9.34782 28.2779 9.2886C28.4455 9.15753 28.5976 9.02602 28.7485 8.87515C23.3035 8.87515 17.8585 8.87515 12.2485 8.87515Z" fill="white"/>
</svg>
