<svg width="33" height="33" viewBox="0 0 33 33" fill="none" xmlns="http://www.w3.org/2000/svg">
<path d="M18.3771 0.484863V2.68879C20.5569 2.68879 22.5991 3.23977 24.5036 4.34174C26.3163 5.42074 27.7619 6.86707 28.8404 8.68072C29.9418 10.5862 30.4925 12.6294 30.4925 14.8104H32.6953C32.6953 12.2162 32.0414 9.80564 30.7334 7.57876C29.4714 5.42074 27.7619 3.7104 25.605 2.44774C23.3793 1.13915 20.9699 0.484863 18.3771 0.484863ZM6.98441 3.79076C6.36487 3.79076 5.82564 3.98589 5.36672 4.37617L1.82157 7.99199L1.92483 7.92312C1.35118 8.40523 0.972576 9.00213 0.789008 9.71381C0.628387 10.4255 0.674279 11.1142 0.926684 11.78C1.56917 13.5707 2.42964 15.4073 3.5081 17.2898C5.02253 19.884 6.82379 22.2142 8.91187 24.2804C12.262 27.6552 16.4267 30.3182 21.4059 32.2696H21.4403C22.1058 32.4992 22.7712 32.5451 23.4366 32.4074C24.125 32.2696 24.7331 31.9712 25.2608 31.512L28.7371 28.034C29.1961 27.5748 29.4255 27.0124 29.4255 26.3466C29.4255 25.6579 29.1961 25.0839 28.7371 24.6248L24.2283 20.0792C23.7694 19.62 23.1957 19.3904 22.5073 19.3904C21.8189 19.3904 21.2453 19.62 20.7864 20.0792L18.618 22.2831C16.8741 21.4566 15.3597 20.435 14.0747 19.2183C12.7897 17.9785 11.7686 16.4748 11.0114 14.7071L13.2142 12.5032C13.6961 11.9981 13.937 11.4012 13.937 10.7125C13.937 10.0008 13.6617 9.42684 13.111 8.99065L13.2142 9.09396L8.6021 4.37617C8.14318 3.98589 7.60395 3.79076 6.98441 3.79076ZM18.3771 4.89272V7.09665C19.7768 7.09665 21.0617 7.44101 22.232 8.12974C23.4252 8.81847 24.3659 9.75973 25.0543 10.9535C25.7427 12.1244 26.0869 13.41 26.0869 14.8104H28.2897C28.2897 13.0197 27.8423 11.3553 26.9474 9.81712C26.0525 8.32488 24.8593 7.13108 23.3678 6.23574C21.8304 5.34039 20.1668 4.89272 18.3771 4.89272ZM6.98441 5.99468C7.05325 5.99468 7.13356 6.02912 7.22534 6.09799L11.7342 10.7125C11.7572 10.8043 11.7342 10.8846 11.6654 10.9535L8.39558 14.1905L8.63651 14.8793L9.08396 15.8435C9.45109 16.624 9.87559 17.3816 10.3575 18.1163C11.0229 19.1494 11.7572 20.0332 12.5603 20.7679C13.6387 21.8239 14.9352 22.7882 16.4496 23.6605C17.2068 24.0967 17.8493 24.4181 18.3771 24.6248L19.0654 24.9347L22.4041 21.5944C22.45 21.5484 22.4844 21.5255 22.5073 21.5255C22.5303 21.5255 22.5647 21.5484 22.6106 21.5944L27.2571 26.2433C27.303 26.2892 27.326 26.3236 27.326 26.3466C27.326 26.3466 27.303 26.3695 27.2571 26.4155L23.8152 29.8247C23.3104 30.2608 22.7597 30.3756 22.1631 30.169C17.4822 28.3554 13.5814 25.8759 10.4607 22.7308C8.53326 20.8023 6.84673 18.6099 5.40114 16.1534C4.36857 14.3857 3.56546 12.6753 2.99182 11.0224V10.988C2.90003 10.7813 2.88856 10.5403 2.9574 10.2648C3.02624 9.96634 3.15244 9.73677 3.33601 9.57607L6.74347 6.09799C6.81231 6.02912 6.89262 5.99468 6.98441 5.99468ZM18.3771 9.30058V11.5045C19.2949 11.5045 20.0751 11.8259 20.7175 12.4687C21.36 13.1115 21.6813 13.8921 21.6813 14.8104H23.8841C23.8841 13.8232 23.6317 12.9049 23.1269 12.0555C22.645 11.2061 21.9796 10.5403 21.1306 10.0582C20.2816 9.55311 19.3637 9.30058 18.3771 9.30058Z" fill="#64328D"/>
</svg>
