<svg width="100" height="100" viewBox="0 0 100 100" fill="none" xmlns="http://www.w3.org/2000/svg">
<g filter="url(#filter0_ii_1_391)">
<path d="M0 25C0 11.1929 11.1929 0 25 0H75C88.8071 0 100 11.1929 100 25V75C100 88.8071 88.8071 100 75 100H0V25Z" fill="white"/>
</g>
<path d="M0.5 25C0.5 11.469 11.469 0.5 25 0.5H75C88.531 0.5 99.5 11.469 99.5 25V75C99.5 88.531 88.531 99.5 75 99.5H0.5V25Z" stroke="white"/>
<path d="M49.7559 25.9558C49.8701 25.9543 49.9844 25.9528 50.1021 25.9512C50.2249 25.9504 50.3477 25.9495 50.4742 25.9486C50.665 25.9472 50.665 25.9472 50.8596 25.9457C51.1287 25.9441 51.3978 25.9429 51.6669 25.9419C52.0769 25.9399 52.4868 25.9348 52.8967 25.9296C53.1586 25.9284 53.4204 25.9274 53.6822 25.9266C53.8041 25.9246 53.926 25.9225 54.0515 25.9204C54.7821 25.9226 55.3777 25.9987 55.9766 26.4453C56.4168 26.9739 56.5055 27.4827 56.5552 28.1665C56.7044 29.6779 57.3244 31.0521 58.4746 32.0781C59.8534 33.1028 61.3105 33.4843 63.0078 33.3593C64.2031 33.1227 65.2356 32.6185 66.1426 31.8066C66.6322 31.3717 67.0201 31.25 67.6807 31.25C68.5921 31.3977 69.2995 32.2328 69.9242 32.8617C70.0341 32.9713 70.0341 32.9713 70.1462 33.0831C70.2994 33.2361 70.4523 33.3895 70.6049 33.5431C70.838 33.7775 71.0724 34.0105 71.3068 34.2435C71.4564 34.3932 71.6058 34.543 71.7552 34.6928C71.8596 34.7965 71.8596 34.7965 71.9661 34.9022C72.5036 35.4458 72.9017 35.8933 72.9028 36.6919C72.8829 37.289 72.772 37.5798 72.3828 38.0468C71.7752 38.8288 71.2763 39.5577 70.9766 40.5078C70.954 40.5765 70.9315 40.6452 70.9083 40.7161C70.5825 42.449 71.005 43.9566 71.9141 45.4296C72.6868 46.5458 73.9093 47.1856 75.1953 47.539C75.6767 47.6185 76.1586 47.6617 76.645 47.697C77.2362 47.8032 77.6139 48.0197 77.9659 48.5106C78.1435 48.8649 78.1714 49.0899 78.1761 49.484C78.1783 49.6127 78.1805 49.7414 78.1829 49.874C78.1834 50.0809 78.1834 50.0809 78.184 50.292C78.1852 50.4349 78.1864 50.5778 78.1876 50.725C78.1894 51.027 78.1902 51.329 78.1901 51.631C78.1909 52.0922 78.1973 52.5532 78.204 53.0143C78.205 53.3081 78.2057 53.6018 78.206 53.8955C78.2085 54.033 78.2111 54.1705 78.2137 54.3121C78.2074 55.0571 78.1524 55.5198 77.6186 56.0611C77.131 56.4323 76.6786 56.4879 76.0815 56.5405C74.4852 56.7162 73.183 57.2766 72.1187 58.5089C71.0045 59.9617 70.7106 61.4441 70.8594 63.2421C71.084 64.4302 71.7173 65.3171 72.4853 66.2231C72.818 66.6243 72.8734 66.9321 72.8882 67.4389C72.8926 67.5364 72.8969 67.6338 72.9014 67.7342C72.7744 68.5305 72.0542 69.1129 71.5076 69.6563C71.4235 69.7406 71.3394 69.8249 71.2528 69.9117C71.0758 70.0889 70.8985 70.2658 70.7209 70.4424C70.4493 70.7128 70.1789 70.9844 69.9086 71.2562C69.7361 71.4286 69.5635 71.6008 69.3909 71.773C69.3102 71.8542 69.2295 71.9354 69.1463 72.019C69.0325 72.1317 69.0325 72.1317 68.9164 72.2467C68.8501 72.3128 68.7839 72.3788 68.7156 72.4469C68.2271 72.8627 67.7942 72.9028 67.1707 72.8881C66.5357 72.8095 66.1288 72.4546 65.6665 72.0385C64.439 70.9489 62.962 70.7578 61.3875 70.837C60.0675 70.9529 58.8339 71.6946 57.9321 72.6391C57.002 73.7621 56.6188 74.9673 56.5185 76.3964C56.4586 77.0561 56.1878 77.4139 55.7589 77.9059C55.1749 78.2533 54.5896 78.1918 53.9226 78.1872C53.7078 78.1879 53.7078 78.1879 53.4887 78.1886C53.1862 78.1889 52.8837 78.188 52.5812 78.1861C52.1188 78.1836 51.6565 78.186 51.1941 78.189C50.9 78.1887 50.6058 78.1881 50.3117 78.1872C50.1736 78.1882 50.0356 78.1891 49.8933 78.1901C49.1536 78.1816 48.6832 78.1617 48.125 77.6562C47.7037 77.1498 47.6941 76.5954 47.6269 75.9643C47.4293 74.4243 46.8675 73.0543 45.6352 72.0513C44.2036 70.9883 42.7278 70.7141 40.9766 70.8593C39.6588 71.1111 38.5735 71.8666 37.5781 72.7343C37.287 72.8799 37.0684 72.8878 36.7432 72.9028C36.6365 72.9099 36.5299 72.917 36.42 72.9243C35.5666 72.7543 34.8904 71.9569 34.2946 71.3569C34.2213 71.2839 34.148 71.2108 34.0725 71.1356C33.9193 70.9825 33.7664 70.8292 33.6138 70.6756C33.3807 70.4412 33.1464 70.2081 32.9119 69.9752C32.7624 69.8255 32.6129 69.6757 32.4635 69.5259C32.3591 69.4222 32.3591 69.4222 32.2527 69.3165C31.6725 68.7297 31.3012 68.2222 31.2358 67.3822C31.2717 66.6921 31.6676 66.2138 32.1216 65.7251C33.0987 64.6578 33.4159 63.2874 33.3882 61.8789C33.2829 60.4383 32.6986 58.9478 31.6016 57.9687C30.3672 57.0502 29.2358 56.6453 27.7147 56.5258C27.1387 56.4225 26.669 56.2763 26.3075 55.7919C25.9269 55.0879 25.91 54.4539 25.9184 53.6648C25.9182 53.5352 25.9181 53.4055 25.9179 53.2719C25.9181 52.9991 25.9194 52.7263 25.9219 52.4535C25.9253 52.0366 25.9243 51.6199 25.9228 51.203C25.9235 50.9372 25.9245 50.6713 25.9257 50.4055C25.9254 50.2814 25.9251 50.1572 25.9247 50.0293C25.9348 49.2388 26.0142 48.6917 26.5771 48.0957C27.1199 47.7653 27.6859 47.6974 28.3084 47.6068C29.9459 47.3626 31.1544 46.748 32.2301 45.4667C32.6803 44.8296 33.0846 44.09 33.2422 43.3203C33.7709 43.3905 34.2208 43.53 34.7143 43.7304C35.5143 44.0546 36.2438 44.2348 37.1094 44.1406C37.4459 43.98 37.4459 43.98 37.6953 43.789C37.7726 43.789 37.85 43.789 37.9297 43.789C38.3133 43.0766 38.4923 42.4789 38.2812 41.6796C38.1419 41.3121 37.9908 40.9528 37.8308 40.5938C37.6168 40.0878 37.5642 39.6812 37.5708 39.1308C37.5718 39.0154 37.5729 38.9 37.574 38.7811C37.5754 38.6935 37.5767 38.6059 37.5781 38.5156C37.6462 38.5149 37.7144 38.5142 37.7846 38.5135C38.4976 38.506 39.2105 38.4961 39.9234 38.4848C40.189 38.4809 40.4547 38.4777 40.7203 38.475C41.1034 38.471 41.4865 38.4649 41.8696 38.4584C42.046 38.4572 42.046 38.4572 42.226 38.4561C43.2382 38.4352 44.1509 38.2708 44.9033 37.5484C45.7895 36.5105 45.6028 35.1553 45.5778 33.8767C45.5515 32.2597 45.5515 32.2597 45.8385 31.7766C46.0431 31.5766 46.2512 31.4148 46.4844 31.25C47.3312 30.1214 47.5636 28.9359 47.6887 27.5604C47.8044 26.9978 48.0529 26.6168 48.4766 26.2329C48.8898 25.9875 49.2817 25.9612 49.7559 25.9558ZM40.9221 41.8151C37.9153 45.1879 36.8 49.1778 36.9922 53.6328C37.0491 54.3127 37.1784 54.9637 37.3437 55.625C37.372 55.7384 37.372 55.7384 37.4009 55.8541C38.404 59.7353 40.9398 63.0719 44.372 65.1204C47.8363 67.1395 51.8504 67.7702 55.7568 66.814C59.6371 65.7844 63.0665 63.319 65.1172 59.8437C66.2593 57.8379 67.149 55.4936 67.2266 53.164C67.2296 53.0883 67.2326 53.0126 67.2357 52.9346C67.3881 48.637 65.933 44.8087 63.054 41.6206C61.0612 39.4819 58.4502 38.0486 55.625 37.3437C55.476 37.3066 55.3271 37.2694 55.1736 37.2311C49.9385 36.0637 44.5975 38.0407 40.9221 41.8151Z" fill="#D4632E"/>
<path d="M23.3942 21.857C23.4791 21.8565 23.5641 21.856 23.6516 21.8555C23.9378 21.8539 24.224 21.8532 24.5101 21.8525C24.7147 21.8515 24.9193 21.8506 25.1239 21.8496C25.797 21.8465 26.4702 21.8447 27.1433 21.843C27.3748 21.8424 27.6063 21.8418 27.8378 21.8411C28.8006 21.8386 29.7633 21.8364 30.7261 21.8351C32.107 21.8332 33.4879 21.8293 34.8689 21.8226C35.8392 21.8181 36.8096 21.8158 37.7799 21.8152C38.3598 21.8147 38.9397 21.8133 39.5195 21.8095C40.065 21.806 40.6104 21.8053 41.1559 21.8066C41.3562 21.8067 41.5564 21.8057 41.7567 21.8036C42.0301 21.801 42.3032 21.8019 42.5766 21.8038C42.7296 21.8034 42.8826 21.803 43.0402 21.8026C43.5383 21.8935 43.7085 22.0737 44.0233 22.461C44.1638 22.742 44.1562 22.9175 44.1578 23.2312C44.159 23.4005 44.159 23.4005 44.1603 23.5733C44.1606 23.6975 44.1609 23.8218 44.1613 23.9498C44.162 24.0803 44.1628 24.2109 44.1636 24.3454C44.1659 24.7788 44.1673 25.2122 44.1684 25.6457C44.1689 25.7934 44.1694 25.9411 44.1699 26.0933C44.1721 26.7944 44.1738 27.4955 44.1748 28.1967C44.1759 29.0058 44.179 29.815 44.1837 30.6242C44.1877 31.3251 44.1891 32.026 44.1896 32.7269C44.1901 33.0251 44.1915 33.3232 44.1937 33.6213C44.1965 34.0383 44.1964 34.4551 44.1956 34.872C44.1978 35.0573 44.1978 35.0573 44.2001 35.2464C44.1965 35.7603 44.1933 36.0809 43.932 36.5315C43.4518 36.9492 43.1409 37.0215 42.5044 37.0189C42.2932 37.0188 42.2932 37.0188 42.0779 37.0188C41.8508 37.017 41.8508 37.017 41.6192 37.0151C41.4622 37.0147 41.3052 37.0144 41.1482 37.0141C40.736 37.0132 40.3237 37.0109 39.9114 37.0083C39.4904 37.0059 39.0693 37.0049 38.6483 37.0037C37.8228 37.0012 36.9973 36.9972 36.1718 36.9922C36.1655 37.4412 36.1618 37.89 36.1585 38.339C36.1567 38.4652 36.1549 38.5913 36.1531 38.7213C36.1469 39.8499 36.3082 40.8058 36.8346 41.8189C37.0136 42.1934 37.0003 42.3467 36.8749 42.7344C35.3845 42.6974 34.1695 42.1124 33.0077 41.211C32.9038 41.1409 32.7998 41.0708 32.6928 40.9986C31.8472 40.1987 31.0994 38.9718 30.8983 37.8126C30.8966 37.5391 30.8965 37.2657 30.8983 36.9922C30.7986 36.9933 30.6988 36.9943 30.5961 36.9954C29.6547 37.0048 28.7133 37.0119 27.7719 37.0165C27.288 37.019 26.8041 37.0223 26.3201 37.0276C25.8528 37.0327 25.3856 37.0355 24.9182 37.0367C24.7402 37.0376 24.5622 37.0393 24.3842 37.0418C24.1343 37.0452 23.8845 37.0457 23.6345 37.0455C23.4924 37.0465 23.3503 37.0475 23.2039 37.0486C22.7299 36.9804 22.4801 36.8215 22.1093 36.5235C21.8586 36.1475 21.8453 36.0498 21.8436 35.6175C21.8426 35.5035 21.8416 35.3895 21.8405 35.272C21.8406 35.1471 21.8407 35.0222 21.8408 34.8935C21.8401 34.7618 21.8393 34.6301 21.8385 34.4944C21.8362 34.0578 21.8358 33.6212 21.8355 33.1846C21.8348 32.8817 21.834 32.5788 21.8332 32.276C21.8318 31.6405 21.8313 31.0051 21.8315 30.3697C21.8316 29.6357 21.8291 28.9017 21.8254 28.1676C21.822 27.4611 21.8212 26.7547 21.8213 26.0482C21.821 25.7478 21.82 25.4473 21.8182 25.1469C21.8159 24.7269 21.8165 24.307 21.818 23.887C21.8166 23.7625 21.8153 23.6381 21.814 23.5099C21.8212 22.6665 21.8212 22.6665 22.0982 22.2107C22.5306 21.8259 22.8217 21.8595 23.3942 21.857ZM25.4803 25.0828C25.2447 25.3714 25.2447 25.3714 25.2733 25.6983C25.3991 25.997 25.4889 26.1292 25.7421 26.3282C26.0165 26.3811 26.0165 26.3811 26.3284 26.3728C26.4495 26.3738 26.5706 26.3748 26.6953 26.3758C26.8945 26.3748 26.8945 26.3748 27.0977 26.3737C27.2376 26.3743 27.3775 26.3749 27.5216 26.3755C27.9054 26.3768 28.2891 26.3765 28.6729 26.3754C29.0745 26.3745 29.4761 26.3753 29.8776 26.3759C30.5522 26.3765 31.2267 26.3757 31.9012 26.374C32.6809 26.3721 33.4606 26.3727 34.2403 26.3747C34.9097 26.3763 35.5791 26.3765 36.2485 26.3756C36.6483 26.375 37.0481 26.3749 37.4479 26.3761C37.8937 26.377 38.3395 26.3756 38.7853 26.3737C38.9179 26.3744 39.0504 26.3751 39.187 26.3758C39.3084 26.3748 39.4298 26.3738 39.5549 26.3728C39.6603 26.3727 39.7657 26.3726 39.8743 26.3724C40.2136 26.3192 40.3738 26.2068 40.6249 25.9766C40.7521 25.7607 40.7521 25.7607 40.7421 25.5079C40.5348 25.0746 40.5348 25.0746 40.1561 24.8047C39.9674 24.7926 39.7782 24.7879 39.5891 24.7867C39.4095 24.7852 39.4095 24.7852 39.2262 24.7837C39.0283 24.7829 39.0283 24.7829 38.8264 24.7821C38.6879 24.7812 38.5493 24.7802 38.4066 24.7792C37.9465 24.7763 37.4865 24.7744 37.0264 24.7727C36.868 24.7721 36.7097 24.7714 36.5513 24.7708C35.8925 24.7683 35.2338 24.7661 34.575 24.7648C33.6309 24.7629 32.6868 24.759 31.7427 24.7523C31.0788 24.7478 30.415 24.7455 29.7512 24.7449C29.3547 24.7444 28.9583 24.743 28.5618 24.7392C28.1193 24.7355 27.677 24.7355 27.2345 24.7364C27.1033 24.7344 26.972 24.7325 26.8369 24.7305C26.0953 24.7207 26.0953 24.7207 25.4803 25.0828ZM25.3905 29.0235C25.2735 29.3058 25.2735 29.3058 25.2733 29.6094C25.4765 29.9751 25.5733 30.061 25.9765 30.1954C26.1669 30.2066 26.3578 30.2112 26.5487 30.2118C26.7256 30.2128 26.7256 30.2128 26.9061 30.2139C27.1001 30.2141 27.1001 30.2141 27.298 30.2143C27.4342 30.2148 27.5705 30.2154 27.7109 30.216C28.1627 30.2177 28.6145 30.2185 29.0664 30.2192C29.3006 30.2197 29.5348 30.2202 29.769 30.2207C30.4216 30.2221 31.0741 30.223 31.7267 30.2234C32.5704 30.2239 33.414 30.2259 34.2577 30.2293C34.9101 30.2319 35.5625 30.2331 36.2148 30.2332C36.6044 30.2333 36.9939 30.2342 37.3834 30.2361C37.818 30.2381 38.2525 30.2379 38.6871 30.2371C38.8804 30.2388 38.8804 30.2388 39.0775 30.2404C39.9141 30.2487 39.9141 30.2487 40.6249 29.8438C40.7716 29.5695 40.7716 29.5695 40.7421 29.2579C40.6058 28.9238 40.6058 28.9238 40.2733 28.6719C39.8142 28.5818 39.3583 28.5944 38.8918 28.5998C38.7505 28.5992 38.6093 28.5985 38.4638 28.5979C38.0768 28.5967 37.69 28.5982 37.3031 28.6009C36.8982 28.6033 36.4933 28.6026 36.0884 28.6023C35.4085 28.6023 34.7287 28.6047 34.0489 28.6084C33.2627 28.6127 32.4766 28.6138 31.6904 28.613C30.9341 28.6122 30.1779 28.6135 29.4217 28.6158C29.0998 28.6167 28.7779 28.617 28.456 28.6169C28.0068 28.6167 27.5577 28.6196 27.1085 28.6227C26.9746 28.6224 26.8407 28.622 26.7028 28.6217C26.5807 28.623 26.4586 28.6243 26.3329 28.6257C26.2266 28.6262 26.1204 28.6266 26.011 28.627C25.6876 28.681 25.5869 28.7657 25.3905 29.0235ZM25.4813 32.7001C25.2446 32.9884 25.2446 32.9884 25.2733 33.3155C25.3992 33.6143 25.4887 33.7464 25.7421 33.9454C26.0184 33.9989 26.0184 33.9989 26.3329 33.9916C26.516 33.9936 26.516 33.9936 26.7028 33.9956C26.8367 33.9953 26.9705 33.9949 27.1085 33.9946C27.2495 33.9956 27.3905 33.9966 27.5358 33.9976C27.9228 33.9999 28.3096 34.0005 28.6966 34.0003C29.0195 34.0003 29.3425 34.0013 29.6655 34.0023C30.4274 34.0045 31.1893 34.0049 31.9513 34.0041C32.7374 34.0033 33.5234 34.006 34.3095 34.0103C34.9844 34.0139 35.6593 34.0153 36.3341 34.0148C36.7372 34.0146 37.1403 34.0152 37.5434 34.0181C37.9929 34.0212 38.4423 34.0195 38.8918 34.0175C39.0254 34.019 39.159 34.0206 39.2967 34.0222C40.0085 34.0283 40.0085 34.0283 40.5977 33.6712C40.7774 33.3588 40.7774 33.3588 40.6835 32.9859C40.4873 32.6181 40.4163 32.5648 40.039 32.4219C39.7561 32.386 39.7561 32.386 39.4482 32.3898C39.2695 32.3881 39.2695 32.3881 39.0873 32.3863C38.8923 32.3861 38.8923 32.3861 38.6934 32.386C38.556 32.3851 38.4185 32.3841 38.2769 32.3831C37.9004 32.3807 37.5239 32.3795 37.1474 32.3789C36.9121 32.3784 36.6768 32.3777 36.4414 32.3769C35.6201 32.374 34.7989 32.3725 33.9776 32.3721C33.2124 32.3716 32.4473 32.3681 31.6822 32.3632C31.0248 32.3592 30.3675 32.3574 29.7101 32.3573C29.3177 32.3572 28.9253 32.3562 28.5329 32.3528C28.0952 32.3497 27.6577 32.3502 27.22 32.3517C27.0902 32.35 26.9605 32.3482 26.8268 32.3464C26.0909 32.3387 26.0909 32.3387 25.4813 32.7001Z" fill="#D4632E"/>
<path d="M47.3047 53.8672C47.9536 54.4142 48.3802 55.3154 48.8232 56.0354C49.2556 56.7372 49.7093 57.423 50.1694 58.1069C50.4746 58.5612 50.776 59.0173 51.0707 59.4784C51.1296 59.5704 51.1884 59.6624 51.2491 59.7572C51.3615 59.9335 51.4734 60.1101 51.5848 60.287C51.8382 60.72 51.8382 60.72 52.2266 61.0156C52.2536 60.9366 52.2807 60.8576 52.3085 60.7762C52.5001 60.3407 52.7572 59.9637 53.0249 59.5727C53.1504 59.3871 53.2756 59.2014 53.4008 59.0156C53.4726 58.909 53.5445 58.8023 53.6185 58.6924C54.1364 57.9176 54.6456 57.137 55.1563 56.3574C55.3179 56.1107 55.4796 55.864 55.6413 55.6173C55.7395 55.4675 55.8377 55.3176 55.9358 55.1678C56.0664 54.9685 56.1973 54.7694 56.3282 54.5703C56.4502 54.3733 56.4502 54.3733 56.5746 54.1724C56.7969 53.8672 56.7969 53.8672 57.1379 53.7935C57.8273 53.9338 58.2804 54.4616 58.7891 54.9218C58.8631 54.9848 58.9371 55.0478 59.0134 55.1127C60.7235 56.6648 61.623 58.9954 61.836 61.25C61.8072 61.5927 61.7763 61.7651 61.5599 62.0314C61.3034 62.2441 61.0449 62.4523 60.7813 62.6562C60.6662 62.7473 60.5511 62.8384 60.4325 62.9323C57.5189 65.1667 53.8506 66.0805 50.2209 65.6127C47.7769 65.2506 45.577 64.303 43.6226 62.7952C43.4519 62.667 43.2742 62.5483 43.096 62.4305C42.6586 62.1143 42.4135 61.9071 42.3247 61.3617C42.4161 58.7554 43.8199 56.4568 45.6444 54.6856C46.6378 53.7764 46.6378 53.7764 47.3047 53.8672Z" fill="#D4632E"/>
<path d="M54.7093 41.5772C55.6644 42.294 56.3202 43.1946 56.5623 44.3751C56.7228 45.7933 56.5648 47.0357 55.7201 48.2203C54.9816 49.1042 53.948 49.6939 52.8123 49.8829C51.3844 49.9879 50.2173 49.6882 49.0623 48.8282C48.12 47.9579 47.6229 46.9082 47.5169 45.6344C47.4758 44.1579 47.991 43.0258 48.9868 41.954C50.5745 40.5492 52.9532 40.4408 54.7093 41.5772Z" fill="#D4632E"/>
<path d="M52.1096 52.2924C52.2377 52.2901 52.3658 52.2877 52.4978 52.2853C52.6211 52.2854 52.7443 52.2855 52.8713 52.2855C52.9837 52.2853 53.0961 52.2851 53.2119 52.2849C53.605 52.3609 53.7466 52.495 53.9846 52.8124C53.9757 53.3476 53.8965 53.6825 53.6843 54.1747C53.4953 54.6233 53.531 54.9609 53.5745 55.4418C53.6147 56.6003 52.8986 57.4298 52.2268 58.3202C51.5413 58.0917 51.1398 57.2036 50.8107 56.5827C50.5981 56.0781 50.6484 55.595 50.6933 55.0614C50.7068 54.56 50.5472 54.22 50.3408 53.7719C50.1846 53.3949 50.1693 53.0952 50.2346 52.6952C50.7645 52.1726 51.4113 52.2879 52.1096 52.2924Z" fill="#D4632E"/>
<defs>
<filter id="filter0_ii_1_391" x="-4" y="0" width="108" height="104" filterUnits="userSpaceOnUse" color-interpolation-filters="sRGB">
<feFlood flood-opacity="0" result="BackgroundImageFix"/>
<feBlend mode="normal" in="SourceGraphic" in2="BackgroundImageFix" result="shape"/>
<feColorMatrix in="SourceAlpha" type="matrix" values="0 0 0 0 0 0 0 0 0 0 0 0 0 0 0 0 0 0 127 0" result="hardAlpha"/>
<feOffset dx="4" dy="4"/>
<feGaussianBlur stdDeviation="15"/>
<feComposite in2="hardAlpha" operator="arithmetic" k2="-1" k3="1"/>
<feColorMatrix type="matrix" values="0 0 0 0 0.819608 0 0 0 0 0.85098 0 0 0 0 0.901961 0 0 0 1 0"/>
<feBlend mode="normal" in2="shape" result="effect1_innerShadow_1_391"/>
<feColorMatrix in="SourceAlpha" type="matrix" values="0 0 0 0 0 0 0 0 0 0 0 0 0 0 0 0 0 0 127 0" result="hardAlpha"/>
<feOffset dx="-4" dy="4"/>
<feGaussianBlur stdDeviation="15"/>
<feComposite in2="hardAlpha" operator="arithmetic" k2="-1" k3="1"/>
<feColorMatrix type="matrix" values="0 0 0 0 1 0 0 0 0 1 0 0 0 0 1 0 0 0 0.5 0"/>
<feBlend mode="normal" in2="effect1_innerShadow_1_391" result="effect2_innerShadow_1_391"/>
</filter>
</defs>
</svg>
